# xmcd
#
# Track frame offsets:
#       150
#       13160
#       27713
#       44650
#       58957
#       72473
#       91171
#       111637
#       125554
#       145445
#       166990
#       182780
#       201135
#       218210
#
# Disc length: 3172 seconds
#
# Revision: 0
# Processed by: cddbd v1.4PL0 Copyright (c) Steve Scherf et al.
# Submitted via: CD-DA_X-Tractor v0.21
#
DISCID=e50c620e
DTITLE=r.kelly and jay z. - best of best worlds
DYEAR=1900
DGENRE=
TTITLE0=Intro
TTITLE1=Shake you Booty
TTITLE2=Somebodys Girl
TTITLE3=Green Light
TTITLE4=Take You Home With me
TTITLE5=PUSSY
TTITLE6=It aint personal
TTITLE7=Get This Money
TTITLE8=Shorty
TTITLE9=The Streets
TTITLE10=Break up to make up
TTITLE11=Honey
TTITLE12=Naked
TTITLE13=Come to Daddy
EXTD=
EXTT0=
EXTT1=
EXTT2=
EXTT3=
EXTT4=
EXTT5=
EXTT6=
EXTT7=
EXTT8=
EXTT9=
EXTT10=
EXTT11=
EXTT12=
EXTT13=
PLAYORDER=
